# xmcd
#
# Track frame offsets: 
#        182
#        41462
#        71122
#        96715
#        117240
#        153847
#
# Disc length: 2551 seconds
#
# Revision: 3
# Processed by: cddbd v1.5.1PL0 Copyright (c) Steve Scherf et al.
# Submitted via: ExactAudioCopy v0.95a5
#
DISCID=4e09f506
DTITLE=Buddy Guy - The Blues Giant 1990 Mastering
DYEAR=1979
DGENRE=Blues
TTITLE0=I Smell A Rat
TTITLE1=Are You Losing Your Mind?
TTITLE2=You've Been Gone Too Long
TTITLE3=She's Out There Somewhere
TTITLE4=Outskirts Of Town
TTITLE5=When I Left Home
EXTD=YEAR: 1981 ID3G: 0
EXTT0=
EXTT1=
EXTT2=
EXTT3=
EXTT4=
EXTT5=
PLAYORDER=
